<mxfile host="app.diagrams.net" agent="Mozilla/5.0 (X11; Linux x86_64) AppleWebKit/537.36 (KHTML, like Gecko) Chrome/132.0.0.0 Safari/537.36 OPR/117.0.0.0" version="26.2.2">
  <diagram name="Page-1" id="kvOFiKGbG913nO9qgTFT">
    <mxGraphModel dx="1308" dy="760" grid="1" gridSize="10" guides="1" tooltips="1" connect="1" arrows="1" fold="1" page="1" pageScale="1" pageWidth="850" pageHeight="1100" math="0" shadow="0">
      <root>
        <mxCell id="0" />
        <mxCell id="1" parent="0" />
        <mxCell id="-TyJgbVA8UpDA-mKh64W-1" value="" style="rounded=0;whiteSpace=wrap;html=1;" parent="1" vertex="1">
          <mxGeometry x="280" y="180" width="280" height="300" as="geometry" />
        </mxCell>
        <mxCell id="-TyJgbVA8UpDA-mKh64W-3" value="IMU" style="shape=umlActor;verticalLabelPosition=bottom;verticalAlign=top;html=1;outlineConnect=0;" parent="1" vertex="1">
          <mxGeometry x="600" y="280" width="30" height="60" as="geometry" />
        </mxCell>
        <mxCell id="-TyJgbVA8UpDA-mKh64W-4" value="Temperature&amp;nbsp;&lt;div&gt;sensor&lt;/div&gt;" style="shape=umlActor;verticalLabelPosition=bottom;verticalAlign=top;html=1;outlineConnect=0;" parent="1" vertex="1">
          <mxGeometry x="600" y="380" width="30" height="60" as="geometry" />
        </mxCell>
        <mxCell id="-TyJgbVA8UpDA-mKh64W-78" style="rounded=0;orthogonalLoop=1;jettySize=auto;html=1;" parent="1" source="-TyJgbVA8UpDA-mKh64W-6" target="-TyJgbVA8UpDA-mKh64W-34" edge="1">
          <mxGeometry relative="1" as="geometry" />
        </mxCell>
        <mxCell id="-TyJgbVA8UpDA-mKh64W-6" value="Virtual Timer" style="pointerEvents=1;verticalLabelPosition=bottom;shadow=0;dashed=0;align=center;html=1;verticalAlign=top;shape=mxgraph.electrical.waveforms.square_wave;" parent="1" vertex="1">
          <mxGeometry x="197.81" y="380" width="40" height="60" as="geometry" />
        </mxCell>
        <mxCell id="-TyJgbVA8UpDA-mKh64W-8" value="SD Card" style="shape=umlActor;verticalLabelPosition=bottom;verticalAlign=top;html=1;outlineConnect=0;" parent="1" vertex="1">
          <mxGeometry x="600" y="180" width="30" height="60" as="geometry" />
        </mxCell>
        <mxCell id="-TyJgbVA8UpDA-mKh64W-9" value="GNSS" style="verticalLabelPosition=bottom;shadow=0;dashed=0;align=center;html=1;verticalAlign=top;shape=mxgraph.electrical.radio.aerial_-_antenna_1;" parent="1" vertex="1">
          <mxGeometry x="197.81" y="280" width="40" height="60" as="geometry" />
        </mxCell>
        <mxCell id="-TyJgbVA8UpDA-mKh64W-10" value="Nb-IoT" style="verticalLabelPosition=bottom;shadow=0;dashed=0;align=center;html=1;verticalAlign=top;shape=mxgraph.electrical.radio.aerial_-_antenna_1;" parent="1" vertex="1">
          <mxGeometry x="197.81" y="180" width="40" height="60" as="geometry" />
        </mxCell>
        <mxCell id="-TyJgbVA8UpDA-mKh64W-13" value="Batteries" style="pointerEvents=1;verticalLabelPosition=bottom;shadow=0;dashed=0;align=center;html=1;verticalAlign=top;shape=mxgraph.electrical.miscellaneous.batteryStack;" parent="1" vertex="1">
          <mxGeometry x="387.81" y="490" width="58.75" height="40" as="geometry" />
        </mxCell>
        <mxCell id="-TyJgbVA8UpDA-mKh64W-81" style="rounded=0;orthogonalLoop=1;jettySize=auto;html=1;" parent="1" source="-TyJgbVA8UpDA-mKh64W-14" target="-TyJgbVA8UpDA-mKh64W-10" edge="1">
          <mxGeometry relative="1" as="geometry" />
        </mxCell>
        <mxCell id="-TyJgbVA8UpDA-mKh64W-82" style="rounded=0;orthogonalLoop=1;jettySize=auto;html=1;" parent="1" source="-TyJgbVA8UpDA-mKh64W-14" target="-TyJgbVA8UpDA-mKh64W-9" edge="1">
          <mxGeometry relative="1" as="geometry" />
        </mxCell>
        <mxCell id="-TyJgbVA8UpDA-mKh64W-14" value="USART" style="ellipse;whiteSpace=wrap;html=1;" parent="1" vertex="1">
          <mxGeometry x="297.81" y="230" width="100" height="40" as="geometry" />
        </mxCell>
        <mxCell id="-TyJgbVA8UpDA-mKh64W-18" value="ADC" style="ellipse;whiteSpace=wrap;html=1;" parent="1" vertex="1">
          <mxGeometry x="325" y="410" width="100" height="40" as="geometry" />
        </mxCell>
        <mxCell id="-TyJgbVA8UpDA-mKh64W-21" style="rounded=0;orthogonalLoop=1;jettySize=auto;html=1;" parent="1" source="-TyJgbVA8UpDA-mKh64W-20" target="-TyJgbVA8UpDA-mKh64W-8" edge="1">
          <mxGeometry relative="1" as="geometry" />
        </mxCell>
        <mxCell id="-TyJgbVA8UpDA-mKh64W-22" style="rounded=0;orthogonalLoop=1;jettySize=auto;html=1;" parent="1" source="-TyJgbVA8UpDA-mKh64W-20" target="-TyJgbVA8UpDA-mKh64W-3" edge="1">
          <mxGeometry relative="1" as="geometry" />
        </mxCell>
        <mxCell id="-TyJgbVA8UpDA-mKh64W-20" value="SPI" style="ellipse;whiteSpace=wrap;html=1;" parent="1" vertex="1">
          <mxGeometry x="437.81" y="235" width="100" height="40" as="geometry" />
        </mxCell>
        <mxCell id="-TyJgbVA8UpDA-mKh64W-79" style="rounded=0;orthogonalLoop=1;jettySize=auto;html=1;" parent="1" source="-TyJgbVA8UpDA-mKh64W-23" target="-TyJgbVA8UpDA-mKh64W-4" edge="1">
          <mxGeometry relative="1" as="geometry" />
        </mxCell>
        <mxCell id="-TyJgbVA8UpDA-mKh64W-23" value="GPIO" style="ellipse;whiteSpace=wrap;html=1;" parent="1" vertex="1">
          <mxGeometry x="437.81" y="380" width="100" height="40" as="geometry" />
        </mxCell>
        <mxCell id="-TyJgbVA8UpDA-mKh64W-83" style="rounded=0;orthogonalLoop=1;jettySize=auto;html=1;" parent="1" source="-TyJgbVA8UpDA-mKh64W-34" target="-TyJgbVA8UpDA-mKh64W-14" edge="1">
          <mxGeometry relative="1" as="geometry" />
        </mxCell>
        <mxCell id="-TyJgbVA8UpDA-mKh64W-84" style="rounded=0;orthogonalLoop=1;jettySize=auto;html=1;" parent="1" source="-TyJgbVA8UpDA-mKh64W-34" target="-TyJgbVA8UpDA-mKh64W-18" edge="1">
          <mxGeometry relative="1" as="geometry" />
        </mxCell>
        <mxCell id="-TyJgbVA8UpDA-mKh64W-85" style="rounded=0;orthogonalLoop=1;jettySize=auto;html=1;" parent="1" source="-TyJgbVA8UpDA-mKh64W-34" target="-TyJgbVA8UpDA-mKh64W-20" edge="1">
          <mxGeometry relative="1" as="geometry" />
        </mxCell>
        <mxCell id="-TyJgbVA8UpDA-mKh64W-86" style="rounded=0;orthogonalLoop=1;jettySize=auto;html=1;" parent="1" source="-TyJgbVA8UpDA-mKh64W-34" target="-TyJgbVA8UpDA-mKh64W-23" edge="1">
          <mxGeometry relative="1" as="geometry" />
        </mxCell>
        <mxCell id="_-shgq0vqCTSxct-aOAj-27" style="edgeStyle=orthogonalEdgeStyle;rounded=0;orthogonalLoop=1;jettySize=auto;html=1;" edge="1" parent="1" source="-TyJgbVA8UpDA-mKh64W-34" target="_-shgq0vqCTSxct-aOAj-26">
          <mxGeometry relative="1" as="geometry" />
        </mxCell>
        <mxCell id="-TyJgbVA8UpDA-mKh64W-34" value="RTOS" style="ellipse;whiteSpace=wrap;html=1;" parent="1" vertex="1">
          <mxGeometry x="297.81" y="310" width="100" height="40" as="geometry" />
        </mxCell>
        <mxCell id="-TyJgbVA8UpDA-mKh64W-43" value="" style="rounded=0;whiteSpace=wrap;html=1;" parent="1" vertex="1">
          <mxGeometry x="277.81" y="590" width="280" height="360" as="geometry" />
        </mxCell>
        <mxCell id="-TyJgbVA8UpDA-mKh64W-44" value="IMU" style="shape=umlActor;verticalLabelPosition=bottom;verticalAlign=top;html=1;outlineConnect=0;" parent="1" vertex="1">
          <mxGeometry x="597.8199999999999" y="870" width="30" height="60" as="geometry" />
        </mxCell>
        <mxCell id="-TyJgbVA8UpDA-mKh64W-45" value="Temperature&amp;nbsp;&lt;div&gt;sensor&lt;/div&gt;" style="shape=umlActor;verticalLabelPosition=bottom;verticalAlign=top;html=1;outlineConnect=0;" parent="1" vertex="1">
          <mxGeometry x="597.81" y="770" width="30" height="60" as="geometry" />
        </mxCell>
        <mxCell id="-TyJgbVA8UpDA-mKh64W-46" value="Timer 1" style="pointerEvents=1;verticalLabelPosition=bottom;shadow=0;dashed=0;align=center;html=1;verticalAlign=top;shape=mxgraph.electrical.waveforms.square_wave;" parent="1" vertex="1">
          <mxGeometry x="197.81" y="780" width="40" height="60" as="geometry" />
        </mxCell>
        <mxCell id="-TyJgbVA8UpDA-mKh64W-47" value="SD Card" style="shape=umlActor;verticalLabelPosition=bottom;verticalAlign=top;html=1;outlineConnect=0;" parent="1" vertex="1">
          <mxGeometry x="597.81" y="660" width="30" height="60" as="geometry" />
        </mxCell>
        <mxCell id="-TyJgbVA8UpDA-mKh64W-48" value="GNSS" style="verticalLabelPosition=bottom;shadow=0;dashed=0;align=center;html=1;verticalAlign=top;shape=mxgraph.electrical.radio.aerial_-_antenna_1;" parent="1" vertex="1">
          <mxGeometry x="197.81" y="690" width="40" height="60" as="geometry" />
        </mxCell>
        <mxCell id="-TyJgbVA8UpDA-mKh64W-49" value="Nb-IoT" style="verticalLabelPosition=bottom;shadow=0;dashed=0;align=center;html=1;verticalAlign=top;shape=mxgraph.electrical.radio.aerial_-_antenna_1;" parent="1" vertex="1">
          <mxGeometry x="197.81" y="590" width="40" height="60" as="geometry" />
        </mxCell>
        <mxCell id="-TyJgbVA8UpDA-mKh64W-50" value="Batteries" style="pointerEvents=1;verticalLabelPosition=bottom;shadow=0;dashed=0;align=center;html=1;verticalAlign=top;shape=mxgraph.electrical.miscellaneous.batteryStack;" parent="1" vertex="1">
          <mxGeometry x="583.4399999999999" y="590" width="58.75" height="40" as="geometry" />
        </mxCell>
        <mxCell id="-TyJgbVA8UpDA-mKh64W-51" style="rounded=0;orthogonalLoop=1;jettySize=auto;html=1;" parent="1" source="-TyJgbVA8UpDA-mKh64W-52" target="-TyJgbVA8UpDA-mKh64W-49" edge="1">
          <mxGeometry relative="1" as="geometry" />
        </mxCell>
        <mxCell id="-TyJgbVA8UpDA-mKh64W-52" value="USART" style="ellipse;whiteSpace=wrap;html=1;" parent="1" vertex="1">
          <mxGeometry x="287.81" y="600" width="100" height="40" as="geometry" />
        </mxCell>
        <mxCell id="-TyJgbVA8UpDA-mKh64W-53" style="rounded=0;orthogonalLoop=1;jettySize=auto;html=1;startArrow=classic;startFill=1;endArrow=none;endFill=1;" parent="1" source="-TyJgbVA8UpDA-mKh64W-52" target="-TyJgbVA8UpDA-mKh64W-48" edge="1">
          <mxGeometry relative="1" as="geometry" />
        </mxCell>
        <mxCell id="-TyJgbVA8UpDA-mKh64W-54" value="ADC" style="ellipse;whiteSpace=wrap;html=1;" parent="1" vertex="1">
          <mxGeometry x="427.81" y="600" width="100" height="40" as="geometry" />
        </mxCell>
        <mxCell id="-TyJgbVA8UpDA-mKh64W-55" style="rounded=0;orthogonalLoop=1;jettySize=auto;html=1;entryX=0;entryY=0.5;entryDx=0;entryDy=0;" parent="1" source="-TyJgbVA8UpDA-mKh64W-54" target="-TyJgbVA8UpDA-mKh64W-50" edge="1">
          <mxGeometry relative="1" as="geometry" />
        </mxCell>
        <mxCell id="-TyJgbVA8UpDA-mKh64W-56" style="rounded=0;orthogonalLoop=1;jettySize=auto;html=1;" parent="1" source="-TyJgbVA8UpDA-mKh64W-75" target="-TyJgbVA8UpDA-mKh64W-47" edge="1">
          <mxGeometry relative="1" as="geometry" />
        </mxCell>
        <mxCell id="-TyJgbVA8UpDA-mKh64W-57" style="rounded=0;orthogonalLoop=1;jettySize=auto;html=1;" parent="1" source="-TyJgbVA8UpDA-mKh64W-58" target="-TyJgbVA8UpDA-mKh64W-44" edge="1">
          <mxGeometry relative="1" as="geometry" />
        </mxCell>
        <mxCell id="-TyJgbVA8UpDA-mKh64W-58" value="SPI" style="ellipse;whiteSpace=wrap;html=1;" parent="1" vertex="1">
          <mxGeometry x="427.81" y="860" width="100" height="40" as="geometry" />
        </mxCell>
        <mxCell id="-TyJgbVA8UpDA-mKh64W-59" style="rounded=0;orthogonalLoop=1;jettySize=auto;html=1;" parent="1" source="-TyJgbVA8UpDA-mKh64W-60" target="-TyJgbVA8UpDA-mKh64W-45" edge="1">
          <mxGeometry relative="1" as="geometry" />
        </mxCell>
        <mxCell id="-TyJgbVA8UpDA-mKh64W-60" value="GPIO" style="ellipse;whiteSpace=wrap;html=1;" parent="1" vertex="1">
          <mxGeometry x="427.81" y="770" width="100" height="40" as="geometry" />
        </mxCell>
        <mxCell id="-TyJgbVA8UpDA-mKh64W-61" style="rounded=0;orthogonalLoop=1;jettySize=auto;html=1;" parent="1" source="-TyJgbVA8UpDA-mKh64W-66" target="-TyJgbVA8UpDA-mKh64W-60" edge="1">
          <mxGeometry relative="1" as="geometry" />
        </mxCell>
        <mxCell id="-TyJgbVA8UpDA-mKh64W-63" style="rounded=0;orthogonalLoop=1;jettySize=auto;html=1;" parent="1" source="-TyJgbVA8UpDA-mKh64W-66" target="-TyJgbVA8UpDA-mKh64W-52" edge="1">
          <mxGeometry relative="1" as="geometry" />
        </mxCell>
        <mxCell id="-TyJgbVA8UpDA-mKh64W-64" style="rounded=0;orthogonalLoop=1;jettySize=auto;html=1;" parent="1" source="-TyJgbVA8UpDA-mKh64W-66" target="-TyJgbVA8UpDA-mKh64W-54" edge="1">
          <mxGeometry relative="1" as="geometry" />
        </mxCell>
        <mxCell id="-TyJgbVA8UpDA-mKh64W-65" style="rounded=0;orthogonalLoop=1;jettySize=auto;html=1;" parent="1" source="-TyJgbVA8UpDA-mKh64W-66" target="-TyJgbVA8UpDA-mKh64W-71" edge="1">
          <mxGeometry relative="1" as="geometry" />
        </mxCell>
        <mxCell id="-TyJgbVA8UpDA-mKh64W-76" style="rounded=0;orthogonalLoop=1;jettySize=auto;html=1;" parent="1" source="-TyJgbVA8UpDA-mKh64W-66" target="-TyJgbVA8UpDA-mKh64W-75" edge="1">
          <mxGeometry relative="1" as="geometry" />
        </mxCell>
        <mxCell id="-TyJgbVA8UpDA-mKh64W-66" value="DMA" style="ellipse;whiteSpace=wrap;html=1;" parent="1" vertex="1">
          <mxGeometry x="337.81" y="670" width="100" height="40" as="geometry" />
        </mxCell>
        <mxCell id="-TyJgbVA8UpDA-mKh64W-67" style="rounded=0;orthogonalLoop=1;jettySize=auto;html=1;" parent="1" source="-TyJgbVA8UpDA-mKh64W-68" target="-TyJgbVA8UpDA-mKh64W-73" edge="1">
          <mxGeometry relative="1" as="geometry" />
        </mxCell>
        <mxCell id="-TyJgbVA8UpDA-mKh64W-68" value="Timer 2" style="pointerEvents=1;verticalLabelPosition=bottom;shadow=0;dashed=0;align=center;html=1;verticalAlign=top;shape=mxgraph.electrical.waveforms.square_wave;" parent="1" vertex="1">
          <mxGeometry x="197.81" y="870" width="40" height="60" as="geometry" />
        </mxCell>
        <mxCell id="-TyJgbVA8UpDA-mKh64W-69" style="rounded=0;orthogonalLoop=1;jettySize=auto;html=1;" parent="1" source="-TyJgbVA8UpDA-mKh64W-46" target="-TyJgbVA8UpDA-mKh64W-66" edge="1">
          <mxGeometry relative="1" as="geometry" />
        </mxCell>
        <mxCell id="-TyJgbVA8UpDA-mKh64W-70" style="rounded=0;orthogonalLoop=1;jettySize=auto;html=1;" parent="1" source="-TyJgbVA8UpDA-mKh64W-71" target="-TyJgbVA8UpDA-mKh64W-73" edge="1">
          <mxGeometry relative="1" as="geometry" />
        </mxCell>
        <mxCell id="-TyJgbVA8UpDA-mKh64W-71" value="Memory" style="ellipse;whiteSpace=wrap;html=1;" parent="1" vertex="1">
          <mxGeometry x="297.81" y="770" width="100" height="40" as="geometry" />
        </mxCell>
        <mxCell id="-TyJgbVA8UpDA-mKh64W-73" value="Main" style="ellipse;whiteSpace=wrap;html=1;" parent="1" vertex="1">
          <mxGeometry x="297.81" y="860" width="100" height="40" as="geometry" />
        </mxCell>
        <mxCell id="-TyJgbVA8UpDA-mKh64W-74" value="" style="curved=1;endArrow=classic;html=1;rounded=0;" parent="1" source="-TyJgbVA8UpDA-mKh64W-73" target="-TyJgbVA8UpDA-mKh64W-52" edge="1">
          <mxGeometry width="50" height="50" relative="1" as="geometry">
            <mxPoint x="57.81" y="800" as="sourcePoint" />
            <mxPoint x="107.81" y="750" as="targetPoint" />
            <Array as="points">
              <mxPoint x="300" y="820" />
              <mxPoint x="280" y="750" />
              <mxPoint x="307.81" y="660" />
            </Array>
          </mxGeometry>
        </mxCell>
        <mxCell id="-TyJgbVA8UpDA-mKh64W-75" value="SDMMC" style="ellipse;whiteSpace=wrap;html=1;" parent="1" vertex="1">
          <mxGeometry x="450" y="690" width="100" height="40" as="geometry" />
        </mxCell>
        <mxCell id="-TyJgbVA8UpDA-mKh64W-80" style="rounded=0;orthogonalLoop=1;jettySize=auto;html=1;" parent="1" source="-TyJgbVA8UpDA-mKh64W-18" target="-TyJgbVA8UpDA-mKh64W-13" edge="1">
          <mxGeometry relative="1" as="geometry">
            <mxPoint x="487" y="510" as="targetPoint" />
          </mxGeometry>
        </mxCell>
        <mxCell id="-TyJgbVA8UpDA-mKh64W-89" value="" style="curved=1;endArrow=classic;html=1;rounded=0;" parent="1" source="-TyJgbVA8UpDA-mKh64W-66" target="-TyJgbVA8UpDA-mKh64W-58" edge="1">
          <mxGeometry width="50" height="50" relative="1" as="geometry">
            <mxPoint x="10" y="820" as="sourcePoint" />
            <mxPoint x="60" y="770" as="targetPoint" />
            <Array as="points">
              <mxPoint x="400" y="790" />
            </Array>
          </mxGeometry>
        </mxCell>
        <mxCell id="_-shgq0vqCTSxct-aOAj-28" style="edgeStyle=orthogonalEdgeStyle;rounded=0;orthogonalLoop=1;jettySize=auto;html=1;" edge="1" parent="1" source="_-shgq0vqCTSxct-aOAj-26" target="-TyJgbVA8UpDA-mKh64W-20">
          <mxGeometry relative="1" as="geometry" />
        </mxCell>
        <mxCell id="_-shgq0vqCTSxct-aOAj-26" value="Log" style="ellipse;whiteSpace=wrap;html=1;" vertex="1" parent="1">
          <mxGeometry x="437.81" y="310" width="100" height="40" as="geometry" />
        </mxCell>
      </root>
    </mxGraphModel>
  </diagram>
</mxfile>
